<?xml version="1.0" encoding="UTF-8" standalone="no"?><svg xmlns="http://www.w3.org/2000/svg" xmlns:xlink="http://www.w3.org/1999/xlink" contentScriptType="application/ecmascript" contentStyleType="text/css" height="100px" preserveAspectRatio="none" style="width:915px;height:100px;" version="1.1" viewBox="0 0 915 100" width="915px" zoomAndPan="magnify"><defs/><g><text fill="#000000" font-family="sans-serif" font-size="18" lengthAdjust="spacingAndGlyphs" textLength="654" x="134" y="16.708">Souscrire un abonnement — collaboration système (E1 : paiement refusé)</text><rect fill="#FAF5F5" height="33.9688" style="stroke: #6E1423; stroke-width: 1.5;" width="150" x="6" y="29.2631"/><text fill="#000000" font-family="sans-serif" font-size="12" lengthAdjust="spacingAndGlyphs" textLength="136" x="13" y="42.4018">Utilisateur authentifié</text><line style="stroke: #6E1423; stroke-width: 1.5;" x1="7" x2="155" y1="47.2319" y2="47.2319"/><rect fill="#FAF5F5" height="33.9688" style="stroke: #6E1423; stroke-width: 1.5;" width="71" x="396" y="29.2631"/><text fill="#000000" font-family="sans-serif" font-size="12" lengthAdjust="spacingAndGlyphs" textLength="57" x="403" y="42.4018">:Système</text><line style="stroke: #6E1423; stroke-width: 1.5;" x1="397" x2="466" y1="47.2319" y2="47.2319"/><rect fill="#FAF5F5" height="33.9688" style="stroke: #6E1423; stroke-width: 1.5;" width="167" x="737" y="29.2631"/><text fill="#000000" font-family="sans-serif" font-size="12" lengthAdjust="spacingAndGlyphs" textLength="153" x="744" y="42.4018">Prestataire de paiement</text><line style="stroke: #6E1423; stroke-width: 1.5;" x1="738" x2="903" y1="47.2319" y2="47.2319"/><!--link A to S--><path d="M156.33,46.2631 C228.13,46.2631 334.11,46.2631 390.99,46.2631 " fill="none" id="A-S" style="stroke: #6E1423; stroke-width: 1.0;"/><polygon fill="#6E1423" points="396,46.2631,387,42.2631,391,46.2631,387,50.2631,396,46.2631" style="stroke: #6E1423; stroke-width: 1.0;"/><text fill="#000000" font-family="sans-serif" font-size="13" lengthAdjust="spacingAndGlyphs" textLength="178" x="187" y="42.33">1: confirmerPaiement(infos)</text><!--link S to A--><path d="M395.71,62.4431 C386.27,66.0831 375.92,69.4131 366,71.2631 C287.36,85.9731 265.44,80.6831 186,71.2631 C173.38,69.7731 160.08,67.2831 147.36,64.4531 " fill="none" id="S-A" style="stroke: #6E1423; stroke-width: 1.0;"/><polygon fill="#6E1423" points="142.33,63.3031,150.2115,69.2092,147.2041,64.418,151.9953,61.4107,142.33,63.3031" style="stroke: #6E1423; stroke-width: 1.0;"/><text fill="#000000" font-family="sans-serif" font-size="13" lengthAdjust="spacingAndGlyphs" textLength="158" x="197" y="67.33">4: échecPaiement(motif)</text><!--link S to P--><path d="M467.18,46.2631 C526.24,46.2631 648.06,46.2631 731.76,46.2631 " fill="none" id="S-P" style="stroke: #6E1423; stroke-width: 1.0;"/><polygon fill="#6E1423" points="736.97,46.2631,727.97,42.2631,731.97,46.2631,727.97,50.2631,736.97,46.2631" style="stroke: #6E1423; stroke-width: 1.0;"/><text fill="#000000" font-family="sans-serif" font-size="13" lengthAdjust="spacingAndGlyphs" textLength="208" x="498" y="42.33">2: demanderPaiement(montant)</text><!--link P to S--><path d="M754.17,63.3131 C738.8,66.6131 722.41,69.5731 707,71.2631 C614.22,81.4531 588.74,88.4231 497,71.2631 C488.79,69.7331 480.28,67.1831 472.23,64.2831 " fill="none" id="P-S" style="stroke: #6E1423; stroke-width: 1.0;"/><polygon fill="#6E1423" points="467.29,62.4431,474.3309,69.3297,471.9763,64.1862,477.1199,61.8316,467.29,62.4431" style="stroke: #6E1423; stroke-width: 1.0;"/><text fill="#000000" font-family="sans-serif" font-size="13" lengthAdjust="spacingAndGlyphs" textLength="163" x="520.5" y="67.33">3: paiementRefusé(motif)</text><!--
@startuml
skinparam backgroundColor transparent
skinparam shadowing false
skinparam objectBorderColor #6e1423
skinparam objectBackgroundColor #faf5f5
skinparam ArrowColor #6e1423
left to right direction
title Souscrire un abonnement — collaboration système (E1 : paiement refusé)


object "Utilisateur authentifié" as A
object ":Système" as S
object "Prestataire de paiement" as P

A -[#6e1423]-> S : 1: confirmerPaiement(infos)
S -[#6e1423]-> P : 2: demanderPaiement(montant)
P -[#6e1423]-> S : 3: paiementRefusé(motif)
S -[#6e1423]-> A : 4: échecPaiement(motif)
@enduml

PlantUML version 1.2019.06(Fri May 24 17:10:25 UTC 2019)
(GPL source distribution)
Java Runtime: OpenJDK Runtime Environment
JVM: OpenJDK 64-Bit Server VM
Java Version: 21.0.10+7-Ubuntu-124.04
Operating System: Linux
OS Version: 6.18.5
Default Encoding: UTF-8
Language: en
Country: US
--></g></svg>