<?xml version="1.0" encoding="UTF-8" standalone="no"?><svg xmlns="http://www.w3.org/2000/svg" xmlns:xlink="http://www.w3.org/1999/xlink" contentScriptType="application/ecmascript" contentStyleType="text/css" height="576px" preserveAspectRatio="none" style="width:623px;height:576px;" version="1.1" viewBox="0 0 623 576" width="623px" zoomAndPan="magnify"><defs/><g><text fill="#000000" font-family="sans-serif" font-size="18" lengthAdjust="spacingAndGlyphs" textLength="523" x="53.5" y="19.2419">Diagramme d'états-transitions — Cycle de vie d'une Question</text><ellipse cx="271" cy="42.5158" fill="#000000" rx="10" ry="10" style="stroke: none; stroke-width: 1.0;"/><rect fill="#FAF5F5" height="55.412" rx="12.5" ry="12.5" style="stroke: #6E1423; stroke-width: 1.5;" width="186" x="178" y="131.5158"/><line style="stroke: #6E1423; stroke-width: 1.5;" x1="178" x2="364" y1="160.5838" y2="160.5838"/><text fill="#000000" font-family="sans-serif" font-size="14" lengthAdjust="spacingAndGlyphs" textLength="66" x="238" y="151.4818">EnAttente</text><text fill="#000000" font-family="sans-serif" font-size="12" lengthAdjust="spacingAndGlyphs" textLength="166" x="183" y="178.4119">do / présenter au modérateur</text><rect fill="#FAF5F5" height="71.7561" rx="12.5" ry="12.5" style="stroke: #6E1423; stroke-width: 1.5;" width="244" x="6" y="283.5158"/><line style="stroke: #6E1423; stroke-width: 1.5;" x1="6" x2="250" y1="312.5838" y2="312.5838"/><text fill="#000000" font-family="sans-serif" font-size="14" lengthAdjust="spacingAndGlyphs" textLength="49" x="103.5" y="303.4818">Validée</text><text fill="#000000" font-family="sans-serif" font-size="12" lengthAdjust="spacingAndGlyphs" textLength="121" x="11" y="330.4119">entry / rendre jouable</text><text fill="#000000" font-family="sans-serif" font-size="12" lengthAdjust="spacingAndGlyphs" textLength="224" x="11" y="346.756">do / présentée en partie selon son score</text><rect fill="#FAF5F5" height="50" rx="12.5" ry="12.5" style="stroke: #6E1423; stroke-width: 1.5;" width="74" x="377" y="294.5158"/><line style="stroke: #6E1423; stroke-width: 1.5;" x1="377" x2="451" y1="323.5838" y2="323.5838"/><text fill="#000000" font-family="sans-serif" font-size="14" lengthAdjust="spacingAndGlyphs" textLength="54" x="387" y="314.4818">Refusée</text><rect fill="#FAF5F5" height="50" rx="12.5" ry="12.5" style="stroke: #6E1423; stroke-width: 1.5;" width="78" x="221" y="434.5158"/><line style="stroke: #6E1423; stroke-width: 1.5;" x1="221" x2="299" y1="463.5838" y2="463.5838"/><text fill="#000000" font-family="sans-serif" font-size="14" lengthAdjust="spacingAndGlyphs" textLength="58" x="231" y="454.4818">Archivée</text><ellipse cx="336" cy="555.5158" fill="none" rx="10" ry="10" style="stroke: #000000; stroke-width: 1.0;"/><ellipse cx="336.5" cy="556.0158" fill="#000000" rx="6" ry="6" style="stroke: none; stroke-width: 1.0;"/><!--MD5=[c13829fa93c113647c76a97729c0d592]
link *start to EnAttente--><path d="M271,52.8858 C271,68.7458 271,101.5558 271,126.3358 " fill="none" id="*start-&gt;EnAttente" style="stroke: #6E1423; stroke-width: 1.0;"/><polygon fill="#6E1423" points="271,131.4858,275,122.4858,271,126.4858,267,122.4858,271,131.4858" style="stroke: #6E1423; stroke-width: 1.0;"/><text fill="#000000" font-family="sans-serif" font-size="13" lengthAdjust="spacingAndGlyphs" textLength="71" x="272" y="97.4129">soumettre()</text><!--MD5=[f04316b96cc72b615e52199eb0af0e14]
link EnAttente to Validée--><path d="M177.96,170.4658 C119.93,179.1058 52.97,193.7358 35,216.5158 C17.67,238.4858 35.49,261.6258 60,280.3058 " fill="none" id="EnAttente-&gt;Validée" style="stroke: #6E1423; stroke-width: 1.0;"/><polygon fill="#6E1423" points="64.32,283.5058,59.4514,274.9445,60.2962,280.5379,54.7027,281.3826,64.32,283.5058" style="stroke: #6E1423; stroke-width: 1.0;"/><text fill="#000000" font-family="sans-serif" font-size="13" lengthAdjust="spacingAndGlyphs" textLength="48" x="36" y="240.4129">valider()</text><!--MD5=[1af244f07c1a983e6e8cf775d237183d]
link Validée to EnAttente--><path d="M117.27,283.4858 C112.99,262.3258 111.78,235.8058 125,216.5158 C136.61,199.5658 154.1,187.7058 172.98,179.3958 " fill="none" id="Validée-&gt;EnAttente" style="stroke: #6E1423; stroke-width: 1.0;"/><polygon fill="#6E1423" points="177.8,177.3558,167.9531,177.1618,173.1918,179.2961,171.0575,184.5349,177.8,177.3558" style="stroke: #6E1423; stroke-width: 1.0;"/><text fill="#000000" font-family="sans-serif" font-size="13" lengthAdjust="spacingAndGlyphs" textLength="145" x="175.5" y="231.4129">tauxVotesNégatifs élevé</text><text fill="#000000" font-family="sans-serif" font-size="13" lengthAdjust="spacingAndGlyphs" textLength="244" x="126" y="249.1189">[seuil dépassé] / renvoyer en modération</text><!--MD5=[4c5eba0818d3468d1246bbca03b31cdc]
link EnAttente to Refusée--><path d="M336.88,186.6458 C350.84,194.6258 364.51,204.5358 375,216.5158 C393.11,237.2058 403.22,267.1858 408.58,289.2958 " fill="none" id="EnAttente-&gt;Refusée" style="stroke: #6E1423; stroke-width: 1.0;"/><polygon fill="#6E1423" points="409.72,294.1658,411.5793,284.4941,408.5884,289.2956,403.7869,286.3047,409.72,294.1658" style="stroke: #6E1423; stroke-width: 1.0;"/><text fill="#000000" font-family="sans-serif" font-size="13" lengthAdjust="spacingAndGlyphs" textLength="50" x="397" y="240.4129">refuser()</text><!--MD5=[85855f6b3e4a15dfd578a708de615673]
link Refusée to EnAttente--><path d="M437.05,294.1258 C454.78,272.3158 473.55,240.2158 456,216.5158 C435.71,189.0958 402.4,174.5458 369.59,166.9658 " fill="none" id="Refusée-&gt;EnAttente" style="stroke: #6E1423; stroke-width: 1.0;"/><polygon fill="#6E1423" points="364.33,165.8058,372.2643,171.6409,369.2139,166.8769,373.9779,163.8266,364.33,165.8058" style="stroke: #6E1423; stroke-width: 1.0;"/><text fill="#000000" font-family="sans-serif" font-size="13" lengthAdjust="spacingAndGlyphs" textLength="148" x="463" y="240.4129">corriger et resoumettre()</text><!--MD5=[1ca60347dcc9af9910be428f253383cd]
link Validée to Archivée--><path d="M161.65,355.6958 C183.89,378.9458 212.64,409.0058 233.3,430.6058 " fill="none" id="Validée-&gt;Archivée" style="stroke: #6E1423; stroke-width: 1.0;"/><polygon fill="#6E1423" points="236.81,434.2658,233.4796,424.9972,233.3539,430.6526,227.6984,430.527,236.81,434.2658" style="stroke: #6E1423; stroke-width: 1.0;"/><text fill="#000000" font-family="sans-serif" font-size="13" lengthAdjust="spacingAndGlyphs" textLength="45" x="206" y="400.4129">retirer()</text><!--MD5=[5bd4ffa06a36372766d01722f51711fb]
link Refusée to *end--><path d="M405.95,344.6758 C389.7,393.4258 353.44,502.1858 340.61,540.6858 " fill="none" id="Refusée-&gt;*end" style="stroke: #6E1423; stroke-width: 1.0;"/><polygon fill="#6E1423" points="338.89,545.8358,345.5176,538.5506,340.4626,541.0896,337.9236,536.0345,338.89,545.8358" style="stroke: #6E1423; stroke-width: 1.0;"/><text fill="#000000" font-family="sans-serif" font-size="13" lengthAdjust="spacingAndGlyphs" textLength="70" x="376" y="464.9129">supprimer()</text><!--MD5=[f53c91335cf89435c4fa4472b32ec205]
link Archivée to *end--><path d="M279.57,484.7258 C294.72,503.4558 315.02,528.5658 326.69,542.9958 " fill="none" id="Archivée-&gt;*end" style="stroke: #6E1423; stroke-width: 1.0;"/><polygon fill="#6E1423" points="330.01,547.1158,327.4602,537.6028,326.8657,543.2283,321.2401,542.6337,330.01,547.1158" style="stroke: #6E1423; stroke-width: 1.0;"/><!--MD5=[8d6b2bb0dc0972f8d34c289d58cbc30c]
@startuml
title Diagramme d'états-transitions — Cycle de vie d'une Question

skinparam backgroundColor transparent
skinparam shadowing false
skinparam state {
  BackgroundColor #faf5f5
  BorderColor #6e1423
  ArrowColor #6e1423
}

[*] - -> EnAttente : soumettre()

EnAttente : do / présenter au modérateur

EnAttente - -> Validée : valider()
EnAttente - -> Refusée : refuser()

Validée : entry / rendre jouable
Validée : do / présentée en partie selon son score

Validée - -> EnAttente : tauxVotesNégatifs élevé\n[seuil dépassé] / renvoyer en modération

Refusée - -> EnAttente : corriger et resoumettre()

Validée - -> Archivée : retirer()
Refusée - -> [*] : supprimer()
Archivée - -> [*]
@enduml

PlantUML version 1.2020.02(Sun Mar 01 11:22:07 CET 2020)
(GPL source distribution)
Java Runtime: OpenJDK Runtime Environment
JVM: OpenJDK 64-Bit Server VM
Java Version: 21.0.11+10-1-24.04.2-Ubuntu
Operating System: Linux
Default Encoding: UTF-8
Language: fr
Country: BE
--></g></svg>